<?xml version="1.0" encoding="UTF-8"?>
<svg xmlns="http://www.w3.org/2000/svg" viewBox="0 0 74.54 31.49">
     <g fill="#dceef6">
      <path d="m2.61,11.61l-.15-.02c-.12.01-.33-.03-.65-.12-.57-.15-1.01-.38-1.33-.69-.09-.1-.2-.23-.31-.4-.11-.17-.17-.28-.16-.33s.02-.13.03-.22c.01-.09.02-.18,0-.27v-.13c-.01-.07,0-.19.07-.36s.09-.31.08-.43c0-.15,0-.31,0-.48-.03-.05,0-.17.09-.37.25-1.51.38-2.34.4-2.49l.14-.5c-.02-.34.02-.64.12-.88l.04-.37c0-.16.1-.61.28-1.36-.03-.14-.17-.33-.4-.57-.05-.06-.1-.16-.14-.28-.04-.12,0-.31.13-.56.08-.08.29-.21.64-.38.03-.06.35-.16.95-.29l.33-.1c.16-.04.48-.03.95.03.26.06.46.13.61.22.55.34,1.04.72,1.49,1.13.14.08.23.18.28.3.19.16.35.39.5.71.14.32.22.52.24.6.02.37-.08.79-.3,1.28-.11.25-.54.75-1.29,1.51.11.05.29.16.54.35.03.05.14.14.33.27.02.04.05.08.08.13.03.05.06.09.08.13l.13.1.14.27.23.25c.1.12.18.26.23.4.15.18.23.31.23.42v.32c-.02.12-.23.51-.63,1.17-.15.23-.33.41-.53.53l-.29.28c-.08.08-.22.18-.42.3-.2.12-.37.23-.5.34-.06.02-.15.06-.28.12-.13.07-.31.14-.55.23-.24.09-.41.14-.49.15-.23.04-.54.06-.93.06Zm-.43-3.09v.41c.03.1.01.25-.05.44-.06.19-.09.33-.06.44-.02.19-.03.3-.02.34.1,0,.26-.02.48-.09.22-.07.36-.11.41-.11.06,0,.14-.04.23-.11.3-.12.61-.26.93-.42l.43-.32c.37-.36.62-.62.77-.79l.13-.29c.18-.3.07-.61-.33-.94-.08-.14-.25-.25-.53-.33h-.02c-.38-.15-.61-.22-.68-.21l-.76.09c-.14.05-.27.07-.37.06-.11-.01-.22-.07-.33-.19l-.03.48c-.1.21-.15.41-.13.62.02.21,0,.51-.06.92Zm2.43-4.31l.33-.55c.07-.15.11-.27.11-.36s0-.16.01-.22c0-.06,0-.13,0-.21s-.03-.17-.08-.26c-.05-.09-.11-.15-.17-.19-.06-.04-.17-.09-.33-.18l-.37-.06c-.33-.1-.62-.1-.87,0-.03.25-.14.76-.35,1.54l-.22,1.16-.15.6c.08,0,.29-.03.63-.12l.26-.18s.2-.12.46-.33c.06-.02.13-.07.2-.15l.19-.19s.1-.03.2-.15l.13-.14Z"/>
      <path d="m11.56,9.01l-.63-.02c-.35-.04-.62-.1-.82-.19l.02.33c-.06.94.13,1.58.59,1.92.13.07.24.11.33.12.09,0,.21-.02.37-.1.05-.04.1-.1.14-.18.02-.1.08-.14.18-.12.52-.54.9-.73,1.12-.58.22.18.33.32.32.41,0,.04-.04.09-.1.14v.1c-.02.11-.11.31-.28.59-.17.28-.35.51-.53.7-.1.16-.21.27-.34.32-.38.19-.78.24-1.18.15-.09-.02-.15-.05-.18-.09-.09-.03-.16-.04-.2-.04l-.13-.03c-.1-.01-.18-.04-.25-.1-.11-.08-.18-.12-.23-.12-.28-.14-.45-.25-.51-.31-.06-.06-.11-.11-.15-.13-.04-.03-.14-.16-.28-.39-.13-.14-.21-.23-.23-.26-.06-.11-.11-.19-.16-.24s-.07-.15-.06-.31c-.04-.06-.05-.13-.04-.23l-.05-.14c0-.08-.02-.14-.08-.2-.06-.08-.08-.16-.08-.27v-.13s-.03-.1,0-.21l.04-.44v-.15s.01-.12.01-.12c0-.05.01-.14.06-.29v-.15s.04-.1.08-.27c.07-.23.14-.37.2-.42l.02-.15s.02-.08.03-.13.03-.12.06-.18.15-.31.34-.73l.33-.56c.1-.16.24-.34.43-.52.02-.05.07-.15.17-.29l.24-.18c.08-.1.19-.16.33-.19.17-.06.29-.09.37-.08l.48-.02c.06.02.09.03.12.03l.22.02c.25.05.44.12.59.21.33.14.56.29.7.47.31.43.44.83.41,1.19-.04.36-.13.66-.27.91-.35.61-.59,1-.74,1.15-.24.35-.5.51-.79.48Zm.3-2.43c.06-.16.08-.38.05-.64-.07-.08-.17-.12-.31-.14-.17-.02-.34.13-.51.43-.21.25-.38.54-.5.85h-.02c-.17.46-.26.71-.26.74.17.06.32.1.43.11s.25-.04.41-.14c.28-.22.52-.62.71-1.21Z"/>
      <path d="m20.36,7.77c-.06.6-.06,1.15.02,1.66,0,.5.05,1.04.14,1.62.01.23,0,.34,0,.34.22.65.34,1.04.36,1.16.02.12,0,.22-.05.29v-.02c-.04.1-.16.18-.34.25s-.34.1-.48.11c-.44.09-.68-.1-.71-.57-.04-.04-.1-.12-.17-.23-.07-.12-.11-.21-.12-.29,0-.07-.04-.15-.1-.22-.02-.06-.06-.14-.13-.23-.07-.1-.1-.19-.11-.29v-.46s-.04-.02-.04-.02c-.22.35-.37.6-.44.74-.17.37-.46.78-.85,1.24-.43.39-.91.46-1.44.23-.2-.03-.36-.11-.46-.24s-.18-.2-.23-.21c-.07-.03-.15-.12-.26-.28-.18-.29-.26-.71-.25-1.24l.05-.44c.04-.05.07-.32.08-.81v-.1c-.02-.35-.04-.55-.03-.62,0-.07.03-.16.06-.27.03-.11.05-.18.04-.21,0-.03,0-.08,0-.14l.03-.25.18-.9c.17-.38.34-.72.52-1.02.07-.19.17-.33.3-.43.31-.28.48-.43.51-.48.1-.16.4-.27.92-.31l.29.05c.11.01.21.04.3.07.09.04.15.06.18.06.15.1.27.15.38.16s.26.11.48.29c.07.02.23.13.48.34.27.22.43.35.47.37l.42.2c.11.12.17.18.17.19s-.06.32-.18.92Zm-2.05.49s.06-.23.13-.58c-.02-.04-.03-.16-.05-.38-.07-.19-.18-.34-.31-.44-.17-.1-.27-.15-.31-.15-.1.02-.18.05-.22.09s-.16.19-.34.45-.35.72-.52,1.37-.26,1.11-.29,1.4c-.03.29-.06.65-.08,1.08-.02.43.05.63.21.63.15,0,.39-.39.73-1.15.02-.05.07-.15.15-.29l.89-2.01Z"/>
      <path d="m22.54,8.11c.01-.1.01-.22,0-.36v-.12c.03-.08.03-.16.02-.26.01-.11.03-.21.07-.3.02-.22.07-.37.13-.43,0-.06.1-.18.28-.36.05-.04.14-.11.28-.2.19-.04.31-.06.38-.06.05-.04.2,0,.45.1.11.02.28.08.51.17.08.03.17.13.28.3-.03.04-.08.21-.16.49-.08.28-.12.52-.13.7.07-.05.2-.16.39-.32s.29-.25.3-.26c.31-.11.6-.17.89-.2.41,0,.67.06.79.17.1.04.17.1.22.18.09.1.16.26.21.49s.02.37-.06.41c-.07.05-.3.07-.69.07-.02,0-.11.03-.25.11l-.95.6c-.19.07-.32.14-.4.2l-.38.56s-.04.17-.08.44-.06.46-.06.58-.04.5-.12,1.14l-.08.73c-.04.39-.07.62-.09.68-.02.06-.08.17-.17.32-.04.05-.15.07-.33.05-.47.28-.75.24-.84-.14l-.21-.16c-.09-.05-.14-.12-.15-.19-.08-.13-.11-.21-.11-.23l-.04-.24-.08-.21s-.04-.23-.02-.66c.02-.42.04-.69.05-.78s0-.2,0-.32c.09-.07.14-.2.15-.39.01-.19.02-.34,0-.45-.01-.11,0-.18.02-.2.03-.03.04-.18.03-.47-.03-.05-.03-.13,0-.25l-.06-.91Z"/>
      <path d="m38.72,13.79c0-.09-.03-.18-.11-.28s-.12-.19-.11-.3c.01-.11,0-.29-.01-.54.03-.04.04-.21.03-.49.01-.02.03-.18.04-.49s.03-.58.06-.81l-.2.29c-.45.84-.68,1.29-.69,1.33l-.51,1.14-.14.4c-.12.28-.17.58-.14.89.01.1-.12.2-.39.28-.07,0-.23-.06-.5-.15-.09,0-.18-.02-.26-.02s-.31-.09-.68-.25c0-.04-.08-.15-.24-.32l.07-1.17c.03-.25.1-.63.22-1.14l.04-.42.13-.55.19-1.04.04-.34c-.4.84-.66,1.38-.78,1.63-.01.14-.19.58-.51,1.33-.34.95-.5,1.56-.48,1.85,0,.07-.03.12-.08.15-.04.04-.15.09-.31.15-.25-.03-.62-.12-1.12-.27l-.29-.17c-.1-.04-.17-.19-.23-.43-.05-.24-.08-.45-.07-.62-.04-.06-.05-.19-.03-.4v-.2c.05-1.21.1-2.05.14-2.5.03-.06.05-.18.07-.33l.05-.47c.02-.2.06-.47.12-.79.06-.33.1-.56.12-.71l.04-.56c.06-.17.31-.26.75-.26.19.02.35.07.48.15.21.17.34.36.38.57s.05.47.03.79c-.02.32-.05.58-.08.79-.08.61-.09,1.04-.05,1.29.08-.13.2-.36.34-.68.02-.02.17-.31.45-.86l.47-1.03c.3-.32.46-.49.49-.51.03-.01.12-.02.27-.01.17,0,.36.07.57.19s.32.18.34.19c.02,0,.11.08.28.21.07.08.13.21.18.41.05.2.06.36.05.48-.02.45-.04.69-.04.71l-.02.2c-.09.67-.11,1.05-.06,1.12.11-.29.3-.65.57-1.08l.21-.42.41-.66s.07-.19.24-.45l.22-.51c.14-.34.45-.59.93-.74.09,0,.3.09.62.25.22.02.41.2.56.52.07.13.09.3.07.5,0,.04-.05.32-.14.82l-.06.54c-.04.13-.05.25-.05.35l-.07.52-.1,1c-.01.13-.03.22-.04.27l-.05.95c.04.08.05.2.03.34,0,.57.1,1.01.27,1.33l.1.23c-.31.42-.73.52-1.26.28-.04-.08-.09-.16-.16-.22-.07-.06-.16-.16-.27-.3,0,0-.07-.14-.2-.38.01-.14-.03-.33-.13-.58Z"/>
      <path d="m42.07,14.31c.02-.49.06-.86.13-1.12.36-.92.63-1.62.83-2.1,0,0,.05-.15.16-.41.16-.38.3-.63.42-.74,0-.03.06-.12.16-.26.01-.1.15-.26.43-.49l.21-.18c.22-.16.52-.22.89-.18.14,0,.29.01.47.07.31.18.66.44,1.05.78l.16.12c.09.03.17.07.25.11.04,0,.14.04.28.1l.2.19c.09.08.15.18.16.31-.08.06-.13.28-.17.65-.09.48-.12,1.05-.08,1.72-.02.61.02,1.27.12,1.96,0,.06.02.21.08.47.06.26.08.42.06.48-.03.28-.31.39-.84.34-.51-.09-.85-.35-1.01-.79,0-.04-.04-.14-.09-.28-.12-.15-.18-.27-.18-.36v-.24c-.05-.04-.08-.09-.08-.14-.16.18-.35.36-.57.54l-.41.52-.15.12s-.14.09-.37.12c-.23.04-.4.03-.49-.03-.06,0-.13-.03-.23-.06l-.71-.38c-.16-.06-.28-.15-.35-.28-.14-.11-.21-.16-.21-.18-.09-.2-.13-.33-.11-.39Zm3.99-3.72l-.07-.16c-.14-.01-.42.24-.85.75-.5.55-.87,1.11-1.11,1.68-.16.34-.26.62-.31.84-.03.33.01.55.14.66.06,0,.12-.03.21-.1.08-.07.13-.12.14-.16.08-.04.2-.16.35-.36.17-.2.26-.3.27-.31l.19-.3.34-.46s.02-.13.14-.38c.16-.22.25-.39.28-.52l.29-1.18Z"/>
      <path d="m49.28,14.75c.37-1.44.55-2.19.56-2.23l.13-.46s.08-.28.13-.76l.04-.34.07-.35c0-.24,0-.43,0-.56-.02-.22.02-.43.13-.63.19-.21.49-.25.88-.11.14.06.27.14.37.24.15.07.26.14.32.2.09.04.11.26.07.64.15-.12.46-.24.94-.36.07,0,.21,0,.43-.03.22-.03.4-.04.55-.02s.26.04.33.09c.21.16.33.26.34.3.02.04.04.1.06.19.02.08.02.12.01.12.09.11.11.23.05.35-.12.14-.28.21-.5.21-.2-.02-.6.11-1.2.39l-.53.2c-.47.26-.73.4-.78.43-.44,2.4-.71,3.73-.79,3.98-.04.1-.13.19-.27.28-.13.09-.28.06-.45-.1l-.23-.11c-.18-.1-.34-.25-.46-.46l-.17-.29-.07-.3c0-.07,0-.14,0-.21l.03-.29Z"/>
      <path d="m55.8,10.27l-.03-.23s0-.06.02-.14c.01-.08.02-.19,0-.32.03-.28.04-.49.05-.63-.03-.05-.02-.27.02-.66,0-.4.05-.77.13-1.13.01-.11.1-.41.28-.88.15-.24.23-.37.23-.4.07-.11.2-.23.38-.37l.36-.13c.18-.05.47,0,.87.14l.36.12c-.02.19-.07.43-.14.72-.04.31-.14.76-.27,1.32-.28,1.13-.49,2.37-.62,3.71l.04.28c.35-.21.67-.44.97-.67.29-.23.48-.37.56-.4.01,0,.15-.1.42-.28.32-.21.5-.34.54-.39.24-.26.52-.45.84-.56.2.02.38.09.53.21.16.18.24.32.23.43-.01.11-.04.2-.07.26-.03.06-.09.13-.17.21-.08.08-.15.18-.22.28-.17.25-.51.57-1.03.99-.35.31-.62.52-.8.65-.11.1-.38.26-.8.48,0,.02.03.07.06.13.03.07.07.15.1.24.42.57.79.96,1.11,1.18.12.15.25.25.4.3,0,0,.06.06.17.15l.1.04c.23.15.39.23.47.24.35.11.52.25.5.42-.02.18-.12.3-.31.37,0,.02-.18.12-.54.29-.04-.02-.14,0-.3.07-.43.09-.9-.01-1.42-.32-.29-.17-.52-.41-.69-.72l-.36-.35s-.18-.27-.51-.7v.53s.04.52.04.52c-.04.36-.04.65-.02.87.02.22-.04.37-.17.44-.14.08-.38.11-.71.08-.33-.02-.58-.13-.73-.31-.04-.04-.07-.19-.08-.45-.01-.26-.03-.44-.05-.54-.15-.71-.18-1.31-.09-1.8l.04-.51s.04-.17.06-.39c.18-.61.26-1.41.25-2.4Z"/>
      <path d="m65.53,14.61h-.63c-.35-.05-.62-.11-.82-.2l.02.33c-.06.94.13,1.58.58,1.92.13.07.24.11.33.12.09,0,.21-.02.37-.1.05-.04.1-.1.14-.17.02-.1.08-.14.18-.12.52-.54.9-.73,1.12-.59.22.18.33.32.32.41,0,.04-.04.09-.1.14v.1c-.02.11-.11.31-.29.59-.17.28-.35.51-.53.7-.1.16-.21.27-.34.32-.38.19-.78.24-1.18.15-.09-.02-.15-.05-.18-.09-.09-.03-.15-.04-.2-.04l-.13-.03c-.1,0-.18-.04-.25-.09-.11-.08-.18-.12-.23-.13-.28-.14-.45-.25-.51-.31-.06-.06-.11-.11-.15-.13-.04-.03-.14-.16-.29-.39-.13-.14-.21-.23-.23-.26-.06-.11-.11-.19-.16-.24-.05-.05-.07-.15-.06-.31-.04-.06-.05-.14-.04-.23l-.05-.14c0-.08-.02-.14-.08-.2-.06-.07-.09-.16-.08-.26v-.14s-.03-.09,0-.21l.05-.44v-.27s.03-.14.08-.28v-.15s.04-.1.08-.27c.07-.23.13-.37.2-.42l.02-.15s.03-.08.03-.13.03-.12.06-.18.15-.31.34-.73l.33-.56c.1-.16.24-.33.43-.52.02-.05.07-.15.17-.29l.24-.18c.08-.1.19-.16.33-.19.17-.06.29-.09.37-.08l.48-.02c.06.02.09.03.12.03l.22.02c.25.05.44.12.59.21.33.14.56.29.7.47.31.43.44.83.41,1.19-.04.36-.13.67-.27.91-.35.61-.59,1-.74,1.15-.24.35-.5.51-.78.48Zm.3-2.43c.06-.16.08-.38.05-.64-.07-.08-.17-.12-.31-.13-.17-.02-.34.12-.51.43-.21.25-.38.54-.5.86h-.02c-.17.46-.26.71-.26.74.17.06.32.1.43.1.11,0,.25-.04.41-.14.28-.22.52-.62.71-1.21Z"/>
      <path d="m72.43,8.06c-.06.28-.09.48-.11.61-.01.13-.03.25-.05.35l-.05.44-.03.12-.04.35c-.01.1-.03.2-.05.3l.6-.06s.21,0,.5-.03.55-.03.78,0c.23.03.38.09.46.19.08.1.1.23.09.4,0,.14-.04.26-.16.38l-.08.09c-.11.14-.25.22-.42.25l-.6.02-.78.11-.47.12c-.02.28-.03.6-.04.94,0,.34-.02.58-.03.71v.63c.03,1.01.12,2.04.24,3.1.06.11.11.35.15.72l.1.37c0,.39-.25.55-.77.5-.09,0-.31-.05-.67-.14-.1-.02-.24-.14-.41-.35,0-.02-.05-.1-.16-.24l-.24-.81s-.04-.15-.05-.33c-.11-.14-.18-.43-.22-.88,0-.02,0-.08-.02-.17l.02-.24c-.07-.09-.1-.31-.1-.68,0-.37,0-.71-.01-1.03.04-.44.05-.87.03-1.28v-.38s.02-.15.02-.15c.02-.11.03-.17.02-.17l-.2-.02c-.17,0-.31,0-.42-.04-.5-.05-.83-.23-.99-.53-.1-.32-.09-.52.04-.59.13-.08.45-.13.94-.18.21.02.5-.02.85-.13.03-.28.06-.44.1-.47.06-.26.12-.42.16-.49.05-.07.08-.14.1-.22.04-.27.18-.66.41-1.17.09-.25.17-.42.24-.5.17-.2.48-.24.93-.11.19.05.32.14.4.26.03,0,.02.13-.03.41Z"/>
      <path d="m14.96,24.8l-.32.63s-.19.25-.57.68c-.12.21-.33.3-.6.3s-.54-.06-.79-.17c-.34-.16-.59-.34-.75-.52-.16-.19-.31-.49-.44-.91-.13-.42-.19-.76-.18-1.02-.02-.38-.02-.62-.01-.72l.04-.41c.04-.4.08-.64.12-.71.02-.04.06-.16.12-.35.11-.47.29-.9.55-1.31.5-.78.97-1.16,1.42-1.13h.08s.05.03.1.04l.22.02c.39.08.63.13.72.18.16.06.31.1.43.11l.43.13c.14,0,.31.05.52.14.21.09.33.15.34.19.01.04.03.16.05.38.02.22.04.38.04.47,0,.1.01.2.01.3,0,.83.07,1.62.2,2.35,0,.04.01.09.02.16,0,.07.03.21.08.41.05.21.08.38.1.52.02.14.06.32.13.56.05.18.13.38.24.62.21.38.05.63-.47.77-.07.02-.19.02-.36,0-.03,0-.14-.07-.3-.2-.11,0-.21-.08-.3-.22l-.13-.05c-.07-.09-.13-.13-.19-.14-.02-.02-.18-.5-.47-1.43-.05.12-.08.23-.08.33Zm-.19-3.28c.01-.25-.02-.45-.11-.58-.09-.14-.27-.24-.53-.29-.08.05-.21.23-.37.54-.16.31-.28.64-.35,1-.17.53-.28,1.06-.34,1.61-.05.55,0,.97.14,1.25.02.05.04.07.06.06.06,0,.16-.1.31-.31.71-1.02,1.11-2.11,1.19-3.26Z"/>
      <path d="m23.79,23.56c-.01.57-.04,1.01-.07,1.33v.22s-.15,1.03-.15,1.03c-.02.16-.04.3-.06.44l-.03.27-.11.43-.02.17c-.04.42-.3.99-.76,1.71-.16.27-.4.54-.71.8-.53.46-1.13.66-1.82.61-.58-.06-.99-.22-1.23-.49l-.16-.1c-.13-.08-.26-.31-.39-.69,0-.04-.02-.11-.06-.23.02-.16.06-.28.14-.36.05-.08.21-.15.48-.19.12-.01.31.12.59.4.2.27.45.43.75.47.31.08.57-.04.77-.37.2-.32.38-.76.53-1.31.07-.21.12-.45.14-.72.03-.27.04-.45.02-.54-.32.12-.6.16-.83.12l-.15-.02c-.09.01-.23,0-.41-.05s-.34-.13-.49-.26l-.3-.25s0,.02-.02.02l-.08-.06-.22-.21c-.1-.07-.13-.18-.12-.34-.07-.05-.12-.12-.15-.19-.09-.04-.12-.13-.11-.25l-.05-.35c0-.06,0-.2-.04-.43-.05-.1-.05-.19-.01-.28.04-.09.06-.16.07-.21l.11-.57v-.12s0-.14.05-.32c.04-.06.06-.11.07-.14.11-.36.18-.58.22-.67.04-.09.08-.2.11-.32.03-.12.08-.23.16-.32l.21-.37c.08-.12.28-.27.6-.47.12-.1.27-.16.45-.18l.47.08.48.17s.21.11.6.32c.02-.21.15-.38.38-.51.1-.08.3-.06.59.04l.15.02c.12,0,.25.07.39.2.06.09.11.27.16.56-.03,1.05-.08,1.88-.14,2.48Zm-3.19.13l-.03.66.08.34.13.36c0,.24.11.39.29.46.13.04.27-.02.41-.18.07-.05.13-.08.16-.1.07-.05.12-.17.14-.37s.05-.36.1-.48c0-.06.02-.26.09-.6.06-.34.12-.6.17-.79s.07-.31.06-.38c-.07-.11-.12-.33-.15-.65-.2-.25-.34-.39-.42-.42-.24-.12-.39-.14-.45-.08-.09.07-.21.43-.37,1.09-.08.11-.12.25-.14.42s-.03.31-.05.4l-.03.32Z"/>
      <path d="m25.44,25.84s.03-.21.09-.51c-.08-.14-.09-.45-.04-.93.11-1.21.17-1.82.18-1.84s0-.07-.03-.13c-.03-.06-.04-.13-.03-.2l.02-.19c0-.38.04-.66.16-.84.03-.11.11-.19.21-.23.09-.11.21-.15.36-.13s.27.04.37.09c.08-.03.15.03.21.16.13.07.2.11.21.11l.08.08c.09,0,.15.03.17.06s.04.1.04.22v1.49s-.03.29-.03.29c0,.14,0,.24,0,.32l-.07.8.07.02c.1-.26.2-.48.3-.66s.17-.31.2-.4c.02-.09.07-.17.14-.24.08-.13.13-.22.13-.28s.06-.12.16-.21c.13-.24.24-.41.34-.51l.06-.13c.05-.06.09-.12.12-.16.13-.09.23-.17.3-.24l.15-.09s.05-.03.08-.09.18-.08.45-.06c.22-.01.4,0,.54.06.1,0,.16.02.18.04l.09.11.13.05c.18.12.28.38.3.77-.08.77-.1,1.28-.07,1.53.01.65.08,1.24.22,1.77.13.53.28.88.44,1.07.21.33.22.65.04.98-.12.16-.26.24-.42.23-.16,0-.27-.02-.34-.05-.09,0-.16-.03-.21-.07-.13.02-.23-.02-.31-.12-.1,0-.17-.07-.22-.18-.34-.56-.54-.9-.58-1.03-.05-.13-.09-.22-.11-.27-.02-.05-.04-.09-.05-.12,0-.04-.02-.09-.03-.16-.01-.1-.04-.2-.1-.29-.05-.09-.08-.16-.07-.2-.03-.06-.04-.15-.04-.28-.06-.05-.09-.11-.08-.18-.05-.04-.08-.14-.09-.31l-.02-.45-.03-.02c-.64.65-1.04,1.42-1.21,2.32-.05.22-.08.37-.11.43-.07.08-.06.23.02.43v.1s-.09.12-.22.23c-.14,0-.22,0-.24,0l-.19-.02s-.07,0-.14.04c-.07,0-.13,0-.17.02-.05.02-.11,0-.18-.04-.2-.03-.32-.06-.35-.08-.03-.02-.08-.04-.15-.07-.07-.02-.12-.07-.16-.13-.06,0-.09-.04-.11-.11-.26-.32-.38-.59-.36-.79v-.12s0-.14,0-.14c.04-.18.05-.34.02-.49Z"/>
      <path d="m34.6,21.11c.1,0,.17,0,.22-.02.05-.02.15-.05.3-.08.15-.03.48,0,1.01.1.29.09.6.27.93.54.35.22.63.5.82.84.23.87.33,1.61.3,2.24-.08.95-.25,1.72-.52,2.32-.36.68-.58,1.08-.69,1.19-.04.15-.15.33-.33.55-.06,0-.1,0-.14,0,0,0-.04.04-.1.1s-.16.08-.27.07c-.15.02-.24.04-.27.06s-.09.03-.18.02h-.43s-.46-.06-.46-.06c-.3-.03-.54-.1-.71-.19l-.47-.39-.15-.22s-.05-.02-.05-.05c0-.03,0-.05-.02-.08-.09-.09-.13-.19-.12-.29-.1-.21-.15-.35-.14-.43s0-.14-.03-.18c.02-.17,0-.42-.08-.76v-.24s0-.19,0-.19c0-.17-.02-.37-.07-.61.02-.02.03-.08.02-.19.03-.26.05-.43.07-.52l-.03-.22c.04-.06.06-.12.06-.18,0-.06.02-.14.07-.25v-.12s.14-.59.14-.59c0-.08.03-.14.05-.18v-.12s.06-.05.08-.17l.1-.13.03-.13s0-.07,0-.1l.11-.25s.05-.09.14-.19c0-.06.05-.14.15-.24,0-.06.04-.12.11-.19.01-.1.08-.22.23-.37.12-.1.23-.15.33-.14Zm2.06,3.44l-.04-.45s0-.07-.01-.12c-.01-.05-.02-.13-.03-.26-.08-.08-.14-.13-.17-.17l-.07-.14-.04-.16c-.05-.04-.08-.09-.08-.15s-.02-.12-.05-.16-.06-.09-.08-.13c-.02-.04-.04-.07-.06-.08-.09-.08-.23-.1-.4-.06-.17.04-.28.11-.33.21-.24.41-.36.67-.37.8-.21.52-.3.9-.25,1.13-.06.36-.07.86-.02,1.5l-.02.19c.09.14.17.34.23.57.1.16.16.27.2.34.03.07.05.11.06.12.1.09.17.15.18.19.09-.04.16-.06.2-.08v-.12c.07-.04.13-.07.18-.09-.01,0,.03-.04.13-.11l.09-.08c.21-.34.31-.52.31-.54,0-.02,0-.05,0-.11-.04-.11,0-.18.11-.23l.26-.57v-.1c.04-.07.03-.12,0-.16v-.12s.06-.09.06-.13c.06-.18.09-.28.09-.32,0-.04,0-.08.02-.12.02-.05.04-.08.06-.11.04-.04-.01-.1-.15-.19Z"/>
      <path d="m40.03,23.25v-.14c0-.05.05-.14.12-.24.07-.08.16-.18.29-.29.13-.11.2-.18.23-.2.16-.09.29-.13.41-.14.08-.05.26-.09.52-.12l.19.02c.07,0,.12.02.15.03.03.01.15.05.35.11.32,0,.63.08.93.22.07.06.13.12.17.15.04.04.1.09.18.16.08.07.17.15.28.25.11.1.26.25.44.45.37.41.46.8.27,1.17l-.19.3c-.19.15-.37.19-.56.11l-.15-.03c-.12-.08-.21-.23-.26-.44-.09-.1-.15-.17-.18-.21-.28-.35-.6-.59-.95-.71-.19,0-.39.07-.59.25-.2.17-.22.42-.06.74-.01.1,0,.17.01.19.02.02.06.12.12.27.13.2.23.36.29.49.04.17.12.29.23.37l.08.23s.18.13.44.34c.06.06.12.16.18.28l.58.79c.06.08.12.19.17.34.12.15.18.28.17.39,0,.11-.04.23-.12.36-.01.12-.08.22-.19.29-.12.07-.2.12-.26.17-.05.04-.26.15-.6.32-.03.05-.3.16-.82.31l-.52.08s-.06,0-.16,0c-.09,0-.24,0-.44-.02l-.13-.02c-.06.02-.19.01-.39,0-.36-.05-.67-.17-.92-.35-.05-.03-.08-.06-.09-.1-.19-.38-.28-.55-.29-.49-.04-.06-.06-.18-.06-.35,0-.17,0-.28,0-.32,0-.04.02-.1.07-.17.12-.17.33-.16.61.03l.21.14c.09.11.21.19.35.22.08,0,.18,0,.29.03.11.02.22.04.32.03l.32-.1h-.02s.05-.02.1-.02.14-.01.26-.03c.34-.07.48-.21.44-.43l-.1-.21c-.1-.27-.21-.47-.35-.6l-.13-.1c-.41-.49-.72-.89-.95-1.23-.03-.03-.1-.1-.2-.21-.09-.11-.15-.29-.18-.53-.08-.22-.12-.38-.12-.46l.03-.32s0-.09,0-.21c0-.11.01-.21.04-.29.03-.08.03-.15.02-.19s.02-.18.1-.38Z"/>
      <path d="m47.05,23.74l.03-.15c-.23-.05-.4-.08-.49-.11-.09-.03-.25-.06-.46-.11-.21-.04-.38-.1-.5-.15-.23-.1-.34-.32-.34-.66,0-.34.13-.53.38-.59.23-.03.39-.04.48-.04.09,0,.26.02.51.02.13-.05.3-.08.52-.07l.26-.04s.05,0,.14-.02l.12-.35c.02-.18.09-.36.21-.53,0-.08.1-.29.29-.63,0-.04.14-.36.41-.95.05-.05.23-.16.55-.34.19-.07.44.02.74.27.17.1.29.22.34.36-.08.06-.13.21-.15.46-.02.08-.14.49-.37,1.22l-.05.47c.09.02.24.06.44.13.2.07.45.14.74.23.55.17.88.43,1,.79.03.25,0,.43-.09.52-.09.09-.29.15-.6.16-.25-.02-.57-.04-.97-.08-.4-.04-.7-.04-.9,0-.04.2-.07.36-.08.47l-.04.25c0,.08-.1.49-.28,1.24-.08.09-.19.61-.33,1.55l-.13,1.23c-.02.2-.02.4,0,.58-.01.25,0,.43.03.53-.01.1,0,.32.02.65-.17.31-.41.45-.72.42-.31-.03-.57-.17-.79-.42l-.16-.29c-.02-.09-.04-.16-.06-.19-.01-.04-.02-.08-.03-.12-.06-.23-.1-.38-.14-.44-.06-.1-.08-.17-.08-.21,0-.04.01-.1.02-.17,0-.2-.01-.36-.03-.5-.05-.06-.06-.26-.03-.58.08-.6.12-.94.11-1.03.04-.03.06-.24.08-.64l.09-.37s.04-.21.12-.5c-.02-.05-.01-.17.02-.37.03-.2.06-.33.09-.41.04-.13.06-.3.09-.5Z"/>
      <path d="m53.91,25.13l-.58,2.79c0,.07-.01.13-.02.2,0,.06,0,.12,0,.16-.02.04-.03.1-.04.17l-.13,1.22c0,.39-.02.61-.07.68-.07.02-.15.04-.25.08-.1.04-.27.04-.52-.02-.25-.05-.43-.12-.54-.19l-.2-.07c-.11-.01-.18-.07-.2-.18-.14-.1-.2-.23-.2-.38-.03-.06.02-.13.14-.22,0-.06-.02-.14-.04-.25-.02-.11-.02-.21,0-.3.04-.05.03-.14-.02-.26.01-.12.04-.26.09-.42.05-.04.08-.2.08-.49.09-.11.15-.26.17-.46-.03-.18,0-.36.11-.54s.16-.35.19-.53c.05-.28.13-.55.24-.81.01-.11.08-.29.22-.52.13-.24.22-.38.26-.42l.3-.24.32-.09h.02c.14-.03.27,0,.4.06.31.16.5.27.56.35-.05.04-.09.11-.11.19-.02.09-.04.17-.06.23-.05.05-.09.13-.13.24Zm.48-4.27h.05c.39.07.64.21.74.43.09.22.12.43.07.61-.05.19-.23.41-.53.66-.31.25-.57.36-.79.33-.07,0-.2-.05-.39-.14-.19-.09-.29-.14-.3-.15,0-.05-.04-.09-.09-.11-.28-.14-.42-.45-.4-.91,0-.04.04-.07.11-.09-.04,0-.04-.07,0-.21.1-.24.3-.38.57-.44.36-.03.68-.03.96.01Z"/>
      <path d="m57.54,23.65c.42-.28,1.01-.26,1.79.05.18.11.34.26.48.46.07.13.11.34.12.61.02.28,0,.56-.06.85-.06.29-.16.53-.32.73s-.39.31-.73.34c-.24-.02-.38-.11-.42-.27-.08-.22-.08-.41,0-.56.06-.23.05-.52-.01-.86-.02-.03-.08-.04-.17-.05l-.24.35s-.16.37-.38.98c-.23.61-.36.99-.39,1.16-.03.16-.06.31-.1.44-.08.78-.08,1.33,0,1.65.08.32.17.52.28.6.03.04.13.06.29.08.16.02.35,0,.55-.08.18-.11.36-.25.52-.44,0-.04.11-.1.31-.17l.15-.12c.42,0,.62.2.6.61.01.12-.04.24-.14.36-.07.13-.12.2-.14.21,0,.05-.18.29-.54.73-.11-.01-.19,0-.24.04-.23.15-.5.18-.8.1-.03-.01-.07-.02-.1-.03-.03,0-.21-.05-.51-.14l-.24-.02c-.29-.1-.48-.19-.57-.28-.13-.05-.28-.14-.45-.27l-.21-.26s-.1-.08-.2-.18c-.1-.11-.15-.19-.16-.24-.01-.05-.04-.13-.09-.25s-.07-.21-.06-.31l-.05-.35c.01-.13,0-.22-.02-.26,0-.02,0-.09-.03-.19.01-.12.02-.29.02-.51,0-.35.05-.57.15-.65.01,0,.01-.1,0-.31l.06-.61c.02-.18.09-.42.23-.71.03-.15.11-.34.26-.57l.11-.21c.04-.18.16-.36.34-.53l.29-.28.24-.32c.15-.16.35-.28.58-.33Z"/>
    </g>
</svg>