<?xml version="1.0" encoding="UTF-8"?>
<svg xmlns="http://www.w3.org/2000/svg" viewBox="0 0 69.53 31.16">
    <g fill="#dceef6">
      <path d="m2.61,11.61l-.15-.02c-.12,0-.33-.03-.65-.12-.57-.15-1.01-.38-1.33-.68-.09-.1-.2-.23-.31-.4-.11-.17-.17-.28-.16-.33,0-.06.02-.13.03-.22.02-.09.02-.18,0-.27v-.13c-.01-.07,0-.19.07-.36.06-.17.09-.31.08-.43,0-.15,0-.31,0-.48-.03-.05,0-.17.09-.37.25-1.51.38-2.34.4-2.49l.14-.5c-.02-.34.02-.64.12-.88l.04-.37c0-.16.1-.61.28-1.36-.03-.14-.17-.33-.4-.57-.05-.06-.1-.16-.14-.28-.04-.12,0-.31.13-.56.08-.08.29-.21.64-.38.03-.06.35-.16.95-.29l.33-.1c.16-.04.48-.03.95.03.26.06.46.13.61.22.54.34,1.04.72,1.49,1.13.14.08.23.18.28.3.19.16.35.39.5.71.14.32.22.52.24.6.02.37-.08.79-.3,1.28-.11.25-.53.75-1.29,1.51.11.05.29.16.55.35.03.05.14.14.33.27.02.04.05.08.08.13s.06.09.08.13l.13.1.14.27.23.25c.1.12.18.26.23.4.15.18.23.31.23.42v.32c-.02.12-.24.51-.63,1.17-.15.24-.33.41-.53.53l-.29.28c-.08.08-.21.18-.42.3-.2.12-.37.23-.51.34-.06.02-.15.06-.28.12-.13.07-.31.14-.55.23-.24.09-.4.14-.49.16-.23.04-.54.06-.93.06Zm-.43-3.09v.41c.03.1.01.25-.05.44-.07.19-.09.33-.06.44-.02.19-.03.3-.02.34.1,0,.26-.02.48-.09s.36-.11.41-.11c.06,0,.14-.04.23-.11.3-.12.61-.26.93-.42l.43-.31c.37-.36.62-.62.77-.79l.13-.29c.18-.3.07-.61-.33-.94-.08-.14-.25-.25-.53-.33h-.02c-.38-.16-.61-.22-.68-.21l-.76.09c-.14.05-.27.07-.37.06-.11-.01-.22-.07-.33-.19l-.03.48c-.1.21-.15.41-.13.62.02.21,0,.51-.06.92Zm2.43-4.31l.33-.55c.07-.15.11-.27.11-.36,0-.09,0-.16.01-.22,0-.06,0-.13,0-.21,0-.09-.03-.17-.08-.26-.05-.09-.11-.15-.17-.19-.06-.03-.17-.09-.33-.18l-.37-.06c-.33-.1-.62-.1-.87,0-.03.25-.14.76-.35,1.54l-.22,1.16-.15.6c.08,0,.29-.03.63-.12l.26-.18s.2-.12.46-.33c.06-.02.13-.07.2-.15l.19-.19s.1-.03.2-.15l.13-.14Z"/>
      <path d="m13.8,7.51l-.02.32s0,.39,0,1.08l-.02.2c-.03.27-.03.68,0,1.23-.02.24.05.66.23,1.27.05.04.08.12.09.25l-.03.17c.02.06-.02.12-.1.18,0,.08-.12.11-.33.08-.21-.02-.35-.03-.41,0-.06.02-.15,0-.27-.06-.05.02-.18-.04-.39-.18-.1-.03-.17-.14-.21-.33l-.1-.34c.02-.2-.02-.39-.11-.56,0-.06,0-.16-.04-.31-.04-.15-.06-.23-.09-.25-.16.44-.34.77-.53,1,0,.06-.05.12-.12.19l-.2.3s-.06.08-.17.17c-.08.14-.24.2-.48.17-.21-.02-.47-.11-.76-.25-.08-.02-.23-.09-.46-.2-.07,0-.17-.03-.31-.09-.14-.07-.21-.1-.24-.1-.03-.04-.1-.1-.22-.19l-.25-.33s-.03-.07-.04-.17c-.02-.1-.02-.17,0-.21.01-.04.02-.1.02-.18,0-.08,0-.16.04-.24.02-.22.07-.47.15-.74,0-.04,0-.08,0-.12,0-.04.04-.13.09-.25,0-.06,0-.1,0-.12l.15-.65c.02-.16.03-.27.05-.34l.03-.25s.03-.11.04-.18l.17-.8c.01-.12.03-.2.04-.24l.02-.17s.05-.11.06-.27l.2-.46.14-.19s.08-.09.2-.13c.19-.09.46-.12.79-.09.13.04.27.11.42.21.04,0,.11.02.23.09.21.12.2.41-.06.87-.08.3-.12.46-.12.47-.05.08-.08.16-.09.21-.11.35-.16.54-.16.56.05-.04.03.03-.07.2l-.13.62c-.11.26-.17.56-.19.89l-.09.21c0,.06-.02.23-.07.52.02.04.03.08.02.12v.14s0,.06,0,.09c.02.03.08.05.19.05.11,0,.2-.01.29-.05.18-.17.31-.36.38-.57.08-.2.12-.32.12-.35.24-.46.39-.73.44-.81.09-.3.22-.64.4-1.02-.02-.06,0-.17.04-.34l.31-.87c.12-.16.18-.26.18-.3,0-.04.09-.19.25-.44,0-.04.05-.13.13-.26.09-.12.25-.22.46-.31h.05c.25,0,.46.06.63.17.02.05.02.13,0,.24.01.12.01.32,0,.62l-.02.17-.11.36c.06.29.04.57-.05.85Z"/>
      <path d="m16.81,3.41l.22-.99.07-.52c.02-.15.05-.26.12-.33l.19-.22c.33-.21.54-.32.63-.34.09-.02.23,0,.4.05.17.06.27.1.3.14l.17.17c.1.07.14.16.12.29.05.07.06.12.04.16-.08.07-.26.73-.54,1.96l-.38,2.29-.13.45c-.02.15-.02.23,0,.25l-.03.3c-.05.22-.08.36-.11.42,0,.06-.02.12-.05.18.02.02.02.11,0,.27-.02.15-.04.24-.08.27-.04.18-.07.35-.09.51-.02.16-.02.33-.01.51,0,.18,0,.35-.03.52v.65s-.03.25-.03.25c0,.21,0,.37-.02.49v.89s.01.46.01.46c.01.2-.02.38-.1.55-.08.17-.19.28-.31.31-.36.11-.74-.02-1.12-.41h-.13c-.07-.11-.12-.24-.15-.41-.09-.05-.12-.14-.09-.25.02-.11.01-.21-.04-.31-.05-.09-.07-.18-.06-.25.01-.15.02-.28,0-.39l.03-.13s-.04-.09-.04-.16v-.31s.01-.14.01-.14c0-.09.01-.15.01-.19,0-.03.02-.09.06-.16-.03-.05-.02-.21.03-.49.16-.86.25-1.45.29-1.78l.06-.4.05-.49c.04-.27.08-.61.13-1.03.05-.42.09-.64.13-.67v-.15c.03-.27.11-.64.24-1.1.13-.46.2-.7.21-.74Z"/>
      <path d="m20.69,4.04c.04-.1.07-.19.06-.28s.03-.32.09-.67c.07-.1.09-.29.08-.59.02-.17.1-.34.26-.51.16-.17.32-.29.48-.37v.02s.15-.06.31-.07c.39-.02.65.13.79.44-.05.07-.1.33-.15.75l-.18,1.72c-.02.28-.05.67-.1,1.15l-.07.64-.05,1.11c-.03.29-.04.59-.04.88-.06.54-.08.87-.07.98.01.12.01.2,0,.24l-.03.27c-.03.25-.03.43-.02.54-.01.11,0,.23.05.36-.07.16-.09.35-.06.58.04.14.04.32,0,.53.05.14.06.33.01.55l.04.11.02.15c.03.15,0,.32-.11.51s-.29.31-.55.35-.53-.1-.82-.45c0-.04-.07-.09-.17-.17-.13-.09-.21-.37-.26-.83-.04-.12-.06-.24-.05-.36-.11-.11-.16-.27-.14-.48l.04-.37c0-.17,0-.29-.03-.35-.03-.05-.05-.17-.05-.36l.15-1.13c.04-.37.06-.66.06-.87l.12-1.15c0-.38.02-.66.04-.86s.1-.59.24-1.18c0-.04,0-.11-.03-.19.05-.17.09-.38.12-.65Z"/>
      <path d="m27.79,8.91l.28-.84.06-.37s.06-.08.11-.21c.1-.41.35-.6.76-.55.21.03.44.12.67.26.09,0,.15.06.19.14.05.02.1.06.14.12.04.06.04.14,0,.23-.04.09-.07.17-.08.23s-.06.26-.16.59c-.25.83-.37,1.39-.38,1.69l1.06-1.29.4-.57c.2-.08.38-.13.54-.15.08,0,.17.04.27.08.32.08.48.14.48.19l.19.16c.12.17.18.31.17.41,0,.1-.03.2-.06.29s-.09.21-.15.35c0,.01-.19.64-.56,1.89l.83-1.38.19-.2c.01-.1.15-.3.41-.61l.2-.29s.05-.09.14-.16c.03,0,.07-.04.12-.14.17-.21.32-.34.45-.38.2-.05.44-.04.71.04l.21.12c.04.09.06.15.09.16h.05c.12.14.16.29.11.44-.07.21-.11.35-.11.42l-.32,1.3s-.04.05-.04.1c-.02.02-.09.32-.19.9s-.18,1.15-.24,1.72v.21s.05.3.05.3l.09.28c0,.14-.03.25-.13.34s-.2.12-.33.11c-.76-.1-1.16-.39-1.17-.86-.03-.06-.04-.12-.03-.19,0-.07,0-.17-.04-.31l.02-.19.06-.25s-.03-.19,0-.55.07-.58.1-.63c.07-.19.11-.39.13-.6-.04.04-.1.1-.19.19-.18.16-.29.29-.35.38l-.39.64c-.31.54-.53.88-.67,1.02-.14.15-.35.2-.63.16-.28-.04-.45-.1-.51-.17-.09-.05-.15-.1-.2-.13-.05-.03-.05-.16-.02-.39l.02-.17.36-1.36c.09-.24.14-.38.15-.43l.11-.4.03-.32-.19.22-.18.29s-.08.09-.08.16c-.06.03-.11.08-.16.17l-.8,1.27c-.23.37-.37.66-.41.86-.08.11-.17.23-.29.36-.11.14-.22.19-.32.16-.11-.03-.18-.06-.22-.1-.04-.04-.05-.08-.04-.14-.14.04-.24-.01-.31-.17l-.35-.57s-.06-.1-.05-.19c.05-.13.06-.24.04-.34-.03-.09-.03-.17-.01-.22-.01-.1,0-.25.01-.43.02-.21.02-.37,0-.48,0-.09.03-.18.06-.27l.02-.17c.03-.5.09-.79.19-.87-.06-.11-.03-.34.09-.69l.04-.2Z"/>
      <path d="m42.32,10.05c-.06.6-.06,1.15.02,1.66,0,.5.05,1.04.14,1.62.01.23,0,.34,0,.34.22.65.34,1.03.36,1.16.02.12,0,.22-.05.29v-.02c-.04.1-.16.18-.34.25s-.34.1-.48.11c-.44.09-.68-.1-.71-.57-.04-.04-.1-.12-.17-.23-.07-.12-.11-.21-.12-.29,0-.07-.04-.15-.1-.22-.02-.06-.06-.14-.13-.24s-.11-.19-.11-.28v-.46s-.04-.02-.04-.02c-.22.35-.36.6-.44.74-.17.37-.46.79-.85,1.25-.43.39-.91.46-1.44.23-.2-.03-.36-.11-.46-.24-.11-.12-.18-.2-.23-.21-.07-.03-.15-.12-.26-.28-.17-.29-.26-.71-.25-1.24l.04-.44c.04-.05.07-.32.08-.81v-.1c-.02-.34-.04-.55-.03-.62,0-.07.03-.16.06-.27.04-.11.05-.18.04-.21,0-.03,0-.08,0-.15l.03-.25.18-.9c.17-.38.34-.72.52-1.02.07-.19.17-.33.3-.43.31-.28.48-.43.51-.48.1-.16.4-.27.92-.31l.29.05c.11.01.21.04.3.08.09.04.15.06.18.06.15.1.28.15.38.16s.26.11.48.29c.07.02.23.13.48.34.27.22.43.35.47.37l.42.2c.11.12.17.18.17.19,0,.01-.06.32-.18.92Zm-2.05.49s.06-.23.13-.58c-.02-.04-.03-.16-.05-.38-.07-.19-.18-.34-.31-.44-.17-.1-.28-.15-.31-.15-.11.02-.18.05-.22.09s-.16.19-.34.45c-.18.27-.35.72-.52,1.37-.16.64-.26,1.11-.29,1.4-.03.29-.06.65-.08,1.08-.02.43.05.63.21.63.15,0,.39-.39.73-1.15.02-.05.07-.15.15-.29l.89-2.01Z"/>
      <path d="m44.51,10.39c.01-.1.01-.22,0-.36v-.12c.03-.08.04-.16.02-.26.01-.11.03-.21.07-.3.02-.23.07-.37.13-.43,0-.06.1-.18.28-.36.05-.04.14-.11.28-.19.18-.04.31-.06.38-.06.05-.04.2,0,.45.1.11.02.28.08.51.17.08.03.17.13.28.3-.03.04-.08.2-.16.49-.08.28-.12.51-.13.7.07-.05.2-.16.39-.32.19-.16.29-.25.3-.26.31-.1.6-.17.89-.2.41,0,.67.06.79.17.1.04.17.1.22.18.09.1.16.26.21.49.04.23.02.36-.06.41-.07.05-.3.07-.69.06-.02,0-.11.04-.25.11l-.95.6c-.19.07-.32.14-.4.2l-.38.56s-.04.17-.08.44c-.04.27-.06.46-.06.58,0,.12-.04.5-.12,1.14l-.08.73c-.04.39-.07.62-.09.68-.02.06-.07.17-.17.32-.04.05-.15.07-.33.05-.47.28-.75.23-.84-.14l-.21-.16c-.09-.05-.14-.12-.15-.19-.08-.13-.11-.21-.11-.23l-.04-.24-.08-.21s-.04-.23-.02-.66.04-.69.05-.78,0-.2,0-.32c.09-.07.14-.2.15-.39.01-.19.02-.34,0-.45-.01-.11,0-.18.02-.2.03-.03.04-.18.03-.47-.03-.05-.03-.13,0-.25l-.06-.91Z"/>
      <path d="m51.14,5.71s.01-.07.03-.12l.06-.54s.03-.08.03-.14c0-.06.02-.11.05-.16.02-.15.09-.28.23-.39.06-.08.12-.13.2-.15.15-.04.43.03.83.22,0-.01,0,0,.04.01.04.02.06.03.07.03.11.02.2.13.26.33-.01.12-.03.53-.06,1.22-.03.69-.08,1.26-.16,1.69l-.02.17c-.12.85-.21,1.57-.28,2.16-.03.07-.04.14-.02.22-.04.13-.08.46-.14.98l.15-.17.1-.16s.03-.08.08-.12.08-.08.1-.11c.01-.03.03-.05.06-.08.03-.03.05-.05.07-.08.02-.03.08-.07.19-.12,0-.03.07-.1.21-.2l.88-.9.47-.26c.05-.06.17-.11.37-.14.19-.03.37-.03.52,0,.18-.08.42,0,.73.25.15.18.14.37-.04.59-.32.39-.52.61-.58.67l-.83.94-.24.3c-.45.47-.72.74-.83.83-.11.08-.16.16-.15.23.13.16.24.27.34.33.04.06.08.11.11.16.04.04.05.07.05.08l.73.9c.37.49.64.9.81,1.21l.69.94c.18.13.26.26.25.38s-.13.22-.35.29c-.08.06-.29.06-.63-.01-.24.02-.42,0-.52-.07-.31-.04-.61-.18-.88-.42-.18-.17-.26-.28-.25-.35-.05-.08-.1-.16-.15-.22-.06-.1-.11-.19-.14-.27-.08-.05-.18-.21-.29-.47-.09-.08-.14-.12-.14-.14,0-.02-.03-.06-.09-.12-.06-.06-.1-.1-.12-.12,0-.05-.08-.2-.24-.45-.06-.04-.11-.09-.15-.16s-.04-.1-.03-.1l-.28-.44-.11-.22c-.09.86-.09,1.73-.01,2.61,0,.18,0,.29,0,.33,0,.03,0,.07,0,.09s0,.05,0,.06l-.11-.06s.06.09.08.2.03.17.01.21c-.11.1-.19.17-.22.2-.03.03-.11.04-.23.04-.12,0-.18-.03-.19-.07-.19-.12-.3-.2-.33-.24-.07-.02-.2-.09-.39-.21,0-.05-.02-.08-.04-.11-.09-.08-.17-.17-.21-.28-.04-.03-.09-.11-.13-.25-.08-.2-.11-.42-.09-.64-.01-.09-.03-.14-.04-.16,0-.01-.01-.06,0-.14v-.44c-.03-.13-.02-.24.01-.32l-.06-.28.03-.59.06-.23c-.06-.11-.05-.25.03-.44v-.1s0-.13,0-.31c0-.18.02-.29.03-.32.01-.03.02-.07.03-.12,0-.16,0-.3,0-.43l.02-.19c.06-1.13.09-1.71.09-1.73l.05-.47c0-.08.02-.27.08-.56s.09-.53.11-.71.03-.29.06-.34c.01-.1.03-.2.07-.3l.02-.19s.04-.14.07-.32l.18-.94Z"/>
      <path d="m61.99,12.02l-.02.19c-.09.68-.36,1.28-.8,1.8-.06.07-.15.16-.27.25l-.41.33c-.09.07-.2.13-.33.19l-.38.06s-.13-.06-.28-.1c-.13.03-.23.01-.32-.07-.01,0-.07-.03-.17-.09-.1-.06-.23-.1-.39-.13,0,.18,0,.38-.03.59l.12.8c.1.25.21.41.32.49.11.07.24.12.38.14.14.02.25.02.32,0,.08-.03.21-.06.4-.11l.36-.13c.25-.11.45-.06.6.17.08.11.1.25.08.41s-.11.3-.25.43c-.08.15-.27.28-.57.39-.01,0-.06.02-.16.05-.53.19-1.1.17-1.7-.07l-.31-.19s-.07-.02-.1-.06c-.13-.05-.27-.15-.41-.3-.14-.15-.24-.28-.29-.37-.05-.1-.09-.16-.11-.2-.02-.04-.05-.11-.1-.23-.15-.38-.26-.74-.32-1.08l-.05-.5s.05-.17.06-.39l.03-.27c-.08-.19.02-.59.31-1.21.27-.84.47-1.32.6-1.46l.27-.42s.08-.09.23-.23c.03-.05.17-.15.42-.3.05-.06.12-.09.21-.1.05-.04.13-.07.23-.1.1-.07.24-.11.42-.11.17-.04.43-.03.78.03.79.15,1.31.54,1.54,1.18l.08.38c0,.06,0,.13.03.21-.01.02-.02.07-.03.13Zm-1.48-.39l.02-.19c.01-.12.01-.19,0-.19l-.1-.04c-.08,0-.14-.03-.18-.05-.08.01-.15.04-.2.08-.16.08-.27.17-.34.29l-.45.71c-.21.33-.35.77-.43,1.32.28.15.5.17.65.05.09-.06.16-.13.23-.21.03-.08.08-.15.16-.21.07-.07.16-.24.26-.53.21-.26.34-.6.38-1.02Z"/>
      <path d="m62.87,10.64c-.02-.17-.03-.27-.04-.29-.05-.12-.06-.22-.05-.31,0-.09,0-.14,0-.14.05-.26.17-.44.37-.55.19-.11.45-.12.77-.01l.52.26.76.27.5-1.08c.12-.17.19-.29.2-.36.01-.07.04-.14.08-.21.06-.15.12-.27.17-.34l.1-.26c.09-.14.26-.22.5-.24.14-.04.26-.03.35.04.3.04.52.18.66.41,0,.06-.03.14-.08.26-.05.12-.09.28-.13.48l-.6,1.65h.13s.42.04.42.04c.06.02.12.03.19.04.25-.03.45-.05.58-.05.14,0,.23,0,.28-.01.03.02.13.03.29.03.16,0,.32.07.48.19.16.12.23.26.21.42-.02.15-.14.27-.36.36l-.17.19c-.19.05-.35.11-.5.19-.17.07-.83.16-1.99.25l-.21.85c.02.06.02.1.02.14-.13.48-.26,1.07-.39,1.79-.01.26-.03.44-.04.53l-.05.46s-.03.09-.04.22c-.03.28-.03.61,0,1,.03.38.04.62.05.7s0,.17-.01.27c-.03.19-.12.31-.28.35-.36-.04-.66-.13-.89-.28-.2-.05-.29-.11-.26-.16-.07-.06-.15-.18-.24-.35,0-.09,0-.14,0-.15-.08-.04-.11-.14-.09-.28-.01-.01-.02-.05-.02-.12l-.07-.43c-.09-.15-.1-.33-.04-.55,0-.04,0-.1-.03-.17v-.12c.02-.09.04-.16.05-.2-.02-.32.02-.7.13-1.12.11-.43.19-.73.23-.92-.02-.06,0-.13.06-.22.01-.1.05-.26.12-.47l.25-.95c-.07-.03-.13-.05-.2-.06-.58-.2-.88-.31-.9-.35l-.19-.14c-.08,0-.19-.06-.33-.16s-.22-.2-.26-.29Z"/>
      <path d="m11.75,24.47l-.32.63s-.19.25-.56.68c-.12.2-.33.3-.6.3-.28,0-.54-.06-.79-.17-.34-.16-.59-.33-.75-.52-.16-.19-.31-.49-.44-.91-.13-.42-.19-.76-.18-1.02-.02-.38-.02-.62-.01-.72l.04-.41c.04-.41.08-.64.12-.71.02-.04.06-.16.12-.35.11-.47.29-.9.55-1.31.5-.78.97-1.16,1.42-1.13h.08s.05.03.1.04l.22.02c.39.08.63.13.72.18.17.06.31.1.43.11l.43.13c.14,0,.31.05.52.14s.33.15.34.19c.01.04.03.16.05.38.02.22.04.38.04.48,0,.1.01.2.01.3,0,.83.07,1.61.2,2.35,0,.04.01.09.02.16,0,.07.03.21.08.41.05.2.08.38.1.51.02.14.06.33.13.56.05.18.13.38.24.62.21.38.05.63-.47.77-.07.02-.19.01-.36,0-.03,0-.13-.07-.3-.2-.11-.01-.21-.08-.3-.22l-.13-.05c-.07-.09-.13-.13-.19-.14-.02-.02-.18-.5-.47-1.43-.05.12-.08.23-.08.33Zm-.19-3.28c.01-.25-.02-.44-.11-.58-.09-.14-.27-.24-.53-.29-.08.05-.21.23-.37.53-.16.31-.28.64-.35,1-.17.53-.28,1.06-.34,1.61-.05.55,0,.97.14,1.25.02.05.04.07.06.06.06,0,.16-.1.31-.31.71-1.02,1.11-2.11,1.19-3.26Z"/>
      <path d="m20.58,23.23c-.01.57-.04,1.01-.07,1.33v.22s-.15,1.03-.15,1.03c-.02.16-.04.31-.06.44l-.03.27-.11.43-.02.17c-.04.42-.3.99-.76,1.72-.17.27-.4.53-.71.8-.53.46-1.13.66-1.82.61-.58-.06-.99-.22-1.23-.49l-.16-.1c-.13-.08-.26-.31-.39-.69,0-.03-.02-.11-.06-.23.02-.16.06-.28.14-.36.05-.08.21-.15.48-.19.12-.01.31.12.59.4.2.27.45.43.75.47.31.08.57-.04.77-.36.2-.32.38-.76.53-1.31.07-.21.12-.45.14-.72.03-.27.04-.45.02-.54-.32.12-.6.17-.83.12l-.15-.02c-.09.01-.23,0-.41-.05-.18-.05-.34-.13-.49-.26l-.3-.25s0,.02-.02.01l-.08-.06-.22-.21c-.1-.07-.14-.18-.12-.34-.07-.05-.12-.12-.15-.19-.09-.04-.12-.13-.11-.25l-.05-.35c0-.06,0-.2-.04-.43-.05-.09-.05-.19-.01-.27.04-.09.06-.16.07-.22l.11-.57v-.12s0-.15.05-.32c.04-.06.06-.11.07-.15.11-.35.18-.58.22-.67.04-.09.08-.2.11-.32.03-.12.08-.23.16-.33l.21-.37c.08-.12.28-.27.6-.47.12-.1.27-.16.45-.18l.47.08.48.17s.21.11.6.32c.02-.21.15-.38.38-.51.1-.08.3-.07.59.04l.15.02c.12,0,.25.07.39.19.06.08.11.27.16.56-.03,1.06-.08,1.88-.14,2.48Zm-3.19.13l-.03.66.08.33.13.36c0,.24.11.39.29.46.13.04.27-.02.41-.18.07-.05.13-.08.16-.1.07-.05.12-.17.14-.37s.05-.36.1-.48c0-.06.02-.26.09-.6.06-.34.12-.6.17-.79.05-.18.07-.31.06-.38-.07-.11-.12-.33-.15-.65-.2-.25-.34-.39-.42-.42-.24-.12-.39-.14-.45-.08-.09.07-.21.43-.37,1.09-.08.11-.12.25-.14.42-.01.18-.03.31-.05.4l-.03.32Z"/>
      <path d="m22.22,25.5s.03-.21.09-.5c-.08-.14-.09-.45-.04-.93.11-1.21.17-1.82.18-1.84,0-.02,0-.07-.03-.13-.03-.06-.04-.13-.03-.2l.02-.19c0-.38.04-.66.16-.84.03-.11.11-.19.21-.23.09-.1.21-.15.36-.13.15.02.27.04.37.09.08-.03.15.03.21.16.13.07.2.11.21.11l.08.08c.09,0,.15.03.17.06.03.03.04.1.04.22v1.49s-.03.29-.03.29c0,.14,0,.25,0,.32l-.07.8.07.02c.1-.26.2-.48.3-.66.1-.18.17-.31.2-.4.02-.09.07-.17.14-.24.08-.13.13-.22.13-.28,0-.05.06-.12.16-.21.13-.24.24-.41.34-.51l.06-.13c.05-.06.09-.12.12-.16.13-.09.23-.17.3-.24l.15-.09s.05-.03.08-.09c.03-.06.18-.08.45-.06.22-.01.4,0,.54.06.1.01.16.02.18.04l.09.11.13.05c.18.12.28.38.3.76-.08.77-.1,1.28-.07,1.53.01.65.08,1.24.22,1.77.13.53.28.88.45,1.07.2.33.22.66.03.98-.12.16-.26.24-.42.23-.16,0-.27-.02-.34-.05-.09,0-.16-.03-.21-.07-.13.02-.23-.02-.31-.12-.1-.01-.18-.07-.22-.18-.34-.56-.54-.9-.58-1.03-.05-.13-.09-.22-.11-.27-.02-.05-.04-.09-.05-.12s-.02-.09-.03-.16c-.01-.1-.04-.2-.1-.29-.05-.09-.08-.16-.07-.2-.03-.06-.04-.15-.04-.28-.06-.05-.09-.11-.08-.18-.05-.04-.08-.14-.09-.32l-.02-.45-.03-.02c-.64.65-1.04,1.42-1.21,2.32-.05.22-.08.37-.11.43-.07.08-.06.23.02.43v.1s-.09.12-.22.23c-.14,0-.22,0-.24,0l-.19-.02s-.07,0-.14.04c-.07,0-.12,0-.17.02-.05.02-.11,0-.18-.04-.2-.03-.32-.06-.35-.08-.03-.02-.08-.04-.15-.07-.07-.02-.12-.07-.16-.13-.06,0-.09-.04-.11-.11-.26-.33-.38-.59-.36-.79v-.12s0-.14,0-.14c.04-.18.05-.34.02-.49Z"/>
      <path d="m31.39,20.78c.1,0,.17,0,.22-.02s.15-.05.3-.08c.15-.03.48,0,1.01.1.29.09.6.27.94.54.35.22.63.5.82.84.23.87.33,1.61.3,2.24-.08.95-.25,1.72-.51,2.32-.36.68-.59,1.08-.69,1.19-.04.14-.15.33-.33.55-.06,0-.1,0-.14,0,0,.01-.04.04-.1.1-.07.05-.16.08-.27.07-.15.02-.24.04-.27.07-.03.02-.09.03-.18.02h-.43s-.46-.06-.46-.06c-.3-.03-.54-.1-.71-.19l-.47-.39-.15-.22s-.05-.02-.05-.05c0-.03,0-.05-.02-.08-.09-.09-.13-.18-.12-.29-.1-.21-.15-.35-.14-.43,0-.08,0-.14-.03-.17.02-.17,0-.42-.08-.76v-.24s.01-.19.01-.19c0-.17-.02-.37-.07-.61.02-.02.03-.08.02-.19.03-.26.05-.43.07-.52l-.03-.23c.04-.06.06-.12.06-.18,0-.06.02-.14.07-.25v-.12s.14-.58.14-.58c0-.08.03-.14.05-.18v-.12s.06-.05.08-.16l.1-.13.03-.13s0-.07,0-.1l.11-.25s.05-.09.14-.19c0-.06.05-.14.14-.24,0-.06.04-.12.11-.19.01-.1.09-.23.23-.37.12-.1.23-.15.33-.14Zm2.06,3.44l-.04-.45s0-.08-.01-.12c-.01-.05-.02-.13-.03-.26-.08-.08-.14-.13-.17-.17l-.07-.14-.04-.16c-.05-.04-.08-.09-.08-.15s-.02-.12-.05-.16-.06-.09-.08-.13c-.02-.04-.04-.07-.06-.08-.09-.08-.23-.1-.41-.06-.17.04-.28.11-.33.21-.24.41-.36.67-.37.8-.21.52-.3.9-.26,1.13-.06.36-.07.86-.02,1.5l-.02.19c.09.14.16.34.23.57.1.16.16.27.2.34.03.07.05.1.06.12.1.09.17.15.19.19.09-.03.16-.06.2-.08v-.12c.07-.04.13-.07.17-.09-.01,0,.03-.04.13-.11l.09-.08c.21-.34.31-.52.31-.54,0-.02,0-.05,0-.11-.04-.11,0-.18.11-.23l.26-.57v-.1c.04-.07.03-.12,0-.16v-.12s.06-.09.06-.13c.06-.18.09-.28.09-.31,0-.04,0-.08.02-.13.02-.05.04-.08.06-.11.04-.04-.01-.1-.15-.19Z"/>
      <path d="m36.81,22.92v-.14c0-.06.05-.14.12-.24.07-.08.16-.18.29-.29.12-.11.2-.18.23-.2.16-.09.29-.13.41-.15.08-.05.26-.09.53-.12l.19.02c.07,0,.12.02.15.03s.15.05.35.1c.32.01.63.08.93.22.07.06.13.12.17.15.04.04.1.09.18.16.08.07.17.15.28.25s.26.25.44.45c.37.41.46.81.27,1.17l-.19.3c-.19.15-.37.19-.56.11l-.15-.03c-.12-.08-.21-.23-.26-.44-.09-.1-.15-.17-.18-.21-.28-.35-.6-.59-.95-.71-.19,0-.39.07-.59.25-.2.17-.22.42-.06.75-.01.1,0,.17.01.19.02.02.06.11.12.27.13.2.22.36.29.49.04.17.12.29.23.37l.08.23s.18.13.44.34c.06.06.12.16.18.27l.58.8c.06.08.12.19.17.34.12.15.18.28.17.39s-.04.23-.11.36c-.01.12-.08.22-.19.29-.12.07-.2.12-.26.17-.06.04-.26.15-.61.32-.03.05-.3.16-.82.31l-.52.08s-.06,0-.16,0c-.09,0-.24,0-.44-.02h-.13c-.06,0-.19,0-.39-.02-.36-.05-.67-.17-.92-.35-.05-.03-.08-.06-.09-.1-.19-.38-.28-.55-.29-.49-.04-.06-.06-.18-.06-.35,0-.17,0-.28,0-.32,0-.04.02-.1.07-.17.12-.17.33-.16.61.03l.21.14c.09.11.21.19.35.23.08,0,.18,0,.29.03.11.02.22.04.32.03l.32-.1h-.02s.05-.02.1-.02.14-.01.26-.03c.34-.07.48-.21.44-.43l-.1-.21c-.1-.27-.21-.47-.35-.6l-.13-.1c-.41-.49-.72-.9-.95-1.23-.03-.03-.1-.1-.2-.21-.09-.11-.15-.29-.19-.53-.08-.22-.12-.38-.12-.46l.03-.32s0-.09,0-.21c0-.11.01-.21.04-.3.03-.08.03-.15.02-.19-.01-.05.02-.17.1-.38Z"/>
      <path d="m43.84,23.41l.03-.15c-.23-.05-.4-.08-.49-.11-.09-.03-.25-.06-.46-.11-.21-.04-.38-.09-.5-.15-.23-.1-.34-.32-.34-.66,0-.34.13-.53.38-.58.23-.03.39-.04.48-.04.09,0,.26.02.51.02.13-.05.3-.08.52-.06l.26-.04s.05,0,.14-.02l.12-.35c.02-.18.09-.36.21-.53,0-.08.11-.29.29-.64,0-.05.14-.36.41-.95.05-.05.23-.16.55-.34.19-.07.44.02.74.27.17.1.29.22.34.36-.07.06-.12.21-.15.46-.02.08-.14.49-.37,1.23l-.05.47c.09.02.24.06.44.13.2.07.45.14.74.23.55.17.88.43,1,.79.03.25,0,.43-.09.52-.09.09-.29.15-.6.16-.25-.02-.57-.04-.97-.08-.4-.04-.7-.04-.9,0-.04.2-.07.36-.08.47l-.04.25c0,.08-.1.49-.28,1.24-.08.09-.19.61-.33,1.55l-.13,1.24c-.02.2-.02.4,0,.58-.02.25,0,.43.03.53-.01.1,0,.32.02.65-.17.31-.41.45-.72.42-.31-.03-.57-.17-.78-.42l-.16-.29c-.02-.09-.04-.16-.06-.19s-.02-.08-.03-.12c-.06-.23-.1-.38-.14-.44-.06-.1-.08-.17-.08-.21s.01-.1.02-.17c0-.19-.02-.36-.03-.5-.05-.06-.06-.26-.02-.58.08-.59.12-.94.11-1.03.04-.03.06-.24.08-.64l.09-.37s.04-.21.12-.5c-.02-.05,0-.17.02-.37.03-.2.06-.33.09-.41.04-.13.07-.3.09-.5Z"/>
      <path d="m50.7,24.8l-.58,2.79c0,.07-.01.13-.02.2,0,.06,0,.12,0,.16-.02.04-.03.1-.04.17l-.13,1.22c0,.39-.02.61-.07.68-.07.02-.15.04-.25.08-.1.04-.27.04-.52-.02-.25-.05-.43-.12-.54-.18l-.2-.07c-.11-.01-.18-.07-.2-.17-.14-.1-.2-.23-.2-.38-.03-.06.02-.14.14-.23,0-.06-.02-.14-.04-.25-.02-.11-.02-.21,0-.3.04-.05.03-.14-.03-.26.01-.12.04-.26.1-.42.05-.04.08-.2.08-.49.09-.11.15-.26.17-.46-.03-.18,0-.36.11-.54.1-.17.16-.35.19-.53.05-.28.13-.55.24-.81.01-.11.08-.29.22-.52.13-.24.22-.38.26-.42l.3-.24.32-.09h.02c.14-.03.27,0,.4.06.31.16.5.27.56.35-.05.04-.08.1-.11.19s-.04.17-.06.23c-.05.05-.09.13-.13.24Zm.48-4.27h.05c.39.07.64.21.73.43.1.22.12.43.07.61s-.22.41-.53.66c-.31.25-.57.36-.79.33-.07,0-.2-.05-.39-.14s-.29-.14-.3-.15c0-.05-.04-.08-.09-.11-.28-.14-.42-.45-.4-.91,0-.04.04-.08.11-.09-.04,0-.04-.07,0-.21.1-.24.3-.39.57-.44.36-.03.68-.03.96.01Z"/>
      <path d="m54.33,23.32c.42-.28,1.01-.26,1.79.05.18.11.34.26.48.46.07.13.11.34.12.61.02.28,0,.56-.06.85s-.16.53-.31.73c-.15.2-.39.31-.73.34-.24-.03-.38-.11-.42-.27-.08-.22-.08-.41,0-.57.06-.23.05-.52-.01-.86-.02-.02-.07-.04-.17-.05l-.24.35s-.16.37-.38.98c-.23.61-.36.99-.38,1.16-.03.16-.06.31-.1.44-.08.78-.08,1.33,0,1.65s.17.52.28.6c.03.04.13.06.29.08.16.02.35,0,.55-.08.18-.11.36-.25.53-.44,0-.04.11-.1.31-.17l.15-.12c.42,0,.62.2.6.61,0,.11-.04.24-.14.36-.07.13-.12.2-.14.21,0,.05-.18.29-.54.73-.11-.01-.19,0-.24.04-.23.15-.5.18-.8.1-.03-.02-.07-.02-.1-.03-.03,0-.2-.05-.51-.14l-.24-.03c-.29-.1-.48-.19-.57-.28-.13-.05-.28-.14-.45-.27l-.21-.26s-.1-.08-.2-.18c-.1-.11-.15-.19-.16-.24-.01-.05-.04-.14-.09-.25-.05-.11-.07-.21-.06-.31l-.05-.35c.01-.13,0-.22-.02-.26,0-.02,0-.09-.03-.19.01-.12.02-.29.02-.51,0-.35.05-.57.15-.65.01,0,.01-.1,0-.31l.06-.61c.02-.18.09-.42.23-.71.03-.15.11-.34.26-.57l.11-.21c.04-.18.16-.35.34-.53l.29-.28.24-.32c.15-.17.35-.28.58-.33Z"/>
    </g>
</svg>